<svg width="88" height="100" viewBox="0 0 88 100" fill="none" xmlns="http://www.w3.org/2000/svg">
<path d="M13.1018 40.0802L16.7329 31.92L8.43037 35.2826L0.270107 31.6515L3.63197 39.9532L0 48.1143L8.24548 44.7508L16.4636 48.3828L13.1018 40.0802Z" fill="black"/>
<path d="M88 37.503L79.6974 40.8656L71.538 37.2345L74.8998 45.5362L71.2671 53.6981L79.5126 50.3338L87.7307 53.9658L84.3696 45.6632L88 37.503Z" fill="black"/>
<path d="M42.4011 9.23426L48.1947 11.7946L45.8248 5.94154L48.3844 0.188914L42.5313 2.55958L36.7787 0L39.1485 5.8523L36.5881 11.6057L42.4011 9.23426Z" fill="black"/>
<path d="M30.4207 49.7387C31.263 51.8691 32.4752 53.8338 34.0014 55.5422C35.1657 56.9748 36.6243 58.1405 38.2784 58.9603C39.9325 59.7802 41.7434 60.235 43.5886 60.2941C45.4337 60.3532 47.27 60.0151 48.9732 59.3027C50.6763 58.5903 52.2065 57.5203 53.4601 56.1651C53.6364 55.9861 53.8032 55.7979 53.9596 55.6013C55.5032 53.8763 56.729 51.8914 57.5801 49.7387C58.8948 49.3076 60.04 48.4727 60.8526 47.3529C61.6651 46.2331 62.1037 44.8855 62.1058 43.5019V39.7571C62.1079 38.9954 61.8976 38.2482 61.4985 37.5994C61.0994 36.9506 60.5273 36.426 59.8464 36.0844V29.9552C59.8546 27.9939 59.4032 26.058 58.5282 24.3027C57.6533 22.5475 56.3792 21.0216 54.8082 19.8476C51.7128 17.5235 47.9268 16.3057 44.0569 16.3894C43.858 16.3661 43.6578 16.3559 43.4576 16.3591C39.7589 16.4443 36.1755 17.6622 33.1909 19.8485C31.6228 21.0238 30.3519 22.5503 29.4801 24.3054C28.6084 26.0605 28.16 27.9955 28.171 29.9552V36.0844C27.4868 36.4234 26.9109 36.9469 26.5086 37.5959C26.1063 38.2449 25.8935 38.9935 25.8942 39.7571V43.5019C25.8962 44.8856 26.3348 46.2334 27.1476 47.3533C27.9603 48.4731 29.1058 49.3079 30.4207 49.7387Z" fill="black"/>
<path d="M70.8769 69.3887L57.0515 62.3793L48.2328 85.7745L45.9798 71.5843L47.4674 68.3873C47.4807 68.3577 47.4863 68.3252 47.4837 68.2929C47.4811 68.2606 47.4704 68.2294 47.4526 68.2023C47.4347 68.1752 47.4104 68.1531 47.3817 68.1379C47.3531 68.1227 47.321 68.115 47.2886 68.1154H40.7114C40.679 68.115 40.647 68.1227 40.6183 68.1379C40.5896 68.1531 40.5653 68.1752 40.5474 68.2023C40.5296 68.2294 40.5189 68.2606 40.5163 68.2929C40.5137 68.3253 40.5193 68.3577 40.5326 68.3873L42.0203 71.5843L39.7673 85.7745L30.9486 62.3793L17.1231 69.3887C16.2284 69.841 15.4535 70.4987 14.8618 71.3079C14.2701 72.1172 13.8783 73.055 13.7186 74.0447L9.59175 99.7002H78.4083L74.2814 74.0447C74.1217 73.055 73.7299 72.1172 73.1382 71.3079C72.5465 70.4986 71.7716 69.841 70.8769 69.3887Z" fill="black"/>
</svg>
