<svg width="74" height="90" viewBox="0 0 74 90" fill="none" xmlns="http://www.w3.org/2000/svg">
<path d="M62.878 10.598L39.58 0.513C38.004 -0.171 35.423 -0.171 33.845 0.513L10.546 10.598C8.96899 11.282 8.96899 12.397 10.546 13.08L12.312 13.844L12.163 15.03C11.487 15.146 10.972 15.734 10.972 16.443C10.972 17.082 11.387 17.624 11.964 17.806L10.892 32.819C10.848 33.444 10.973 34.445 11.172 35.04L12.041 37.651C12.24 38.247 12.563 38.247 12.763 37.651L13.633 35.04C13.831 34.446 13.957 33.445 13.912 32.819L12.842 17.806C13.415 17.621 13.835 17.081 13.835 16.443C13.835 15.734 13.32 15.147 12.641 15.03L12.504 13.928L16.58 15.693L18.577 16.557V24.263L18.582 24.266C18.374 25.421 18.224 26.598 18.132 27.672C17.785 29.086 17.583 30.556 17.583 32.077H17.62C17.62 32.091 17.617 32.102 17.615 32.112C17.591 32.114 17.573 32.116 17.549 32.12C16.237 32.349 15.635 35.155 16.213 38.389C16.742 41.359 18.077 43.654 19.318 43.828C20.889 48.057 23.379 52.169 26.458 55.17C28.195 56.875 30.127 58.222 32.184 59.04C33.599 59.598 35.076 59.912 36.597 59.912C38.112 59.912 39.589 59.601 41.004 59.04C43.133 58.191 45.129 56.78 46.915 54.994C49.919 51.998 52.352 47.948 53.887 43.793C55.076 43.444 56.318 41.224 56.825 38.386C57.372 35.307 56.855 32.622 55.667 32.178C55.711 31.424 55.737 30.663 55.734 29.887C55.728 27.525 55.414 25.344 54.85 23.348V16.556L56.847 15.692L62.877 13.08C64.456 12.397 64.456 11.281 62.878 10.598ZM53.814 37.333C53.805 37.792 53.759 38.288 53.666 38.801C53.645 38.938 53.608 39.054 53.575 39.186C53.271 40.576 52.716 41.714 52.124 42.219C51.991 42.335 51.847 42.416 51.713 42.46C51.585 42.502 51.459 42.521 51.335 42.498C51.198 42.477 51.066 42.404 50.95 42.295C49.523 46.731 46.805 51.149 43.375 53.836C42.866 54.23 42.346 54.589 41.812 54.903C40.184 55.86 38.429 56.424 36.602 56.424C34.225 56.424 31.97 55.482 29.959 53.943C26.467 51.269 23.694 46.793 22.251 42.296C22.134 42.404 22.001 42.476 21.862 42.499C21.567 42.552 21.254 42.402 20.954 42.106C20.725 41.878 20.506 41.563 20.306 41.181C19.973 40.544 19.697 39.723 19.534 38.804C19.517 38.707 19.504 38.615 19.492 38.518C19.497 37.497 19.546 36.498 19.613 35.514C19.74 35.134 19.911 34.84 20.134 34.682C20.229 34.617 20.33 34.569 20.435 34.551C20.68 34.51 20.935 34.605 21.187 34.804C21.187 34.804 21.187 34.804 21.189 34.804C21.189 34.785 21.19 34.764 21.192 34.747C21.24 34.276 21.614 31.75 23.189 29.747C23.914 28.824 24.905 28.02 26.228 27.571L33.848 30.871C35.426 31.554 38.007 31.554 39.583 30.871L45.807 28.177L47.376 27.497H47.969H47.968C48.235 27.573 48.476 27.688 48.709 27.812C48.777 27.885 48.846 27.971 48.913 28.049C49.445 28.661 49.966 29.439 50.46 30.446C51.018 31.583 51.54 32.999 52.002 34.756C52.002 34.771 52.002 34.785 52.002 34.796C52.007 34.796 52.009 34.796 52.014 34.795C52.014 34.794 52.014 34.795 52.016 34.794C52.016 34.797 52.016 34.797 52.016 34.797L52.032 34.782C52.152 34.688 52.276 34.616 52.397 34.577C52.411 34.572 52.423 34.573 52.437 34.57C52.479 34.562 52.52 34.559 52.561 34.557C52.571 34.557 52.582 34.557 52.591 34.556C52.647 34.553 52.709 34.533 52.759 34.542H52.762C52.823 34.551 52.884 34.574 52.938 34.596C53.009 34.629 53.077 34.676 53.14 34.734C53.495 35.057 53.723 35.745 53.791 36.62C53.797 36.689 53.805 36.755 53.808 36.828C53.812 36.902 53.81 36.981 53.812 37.057C53.813 37.147 53.817 37.236 53.815 37.331C53.814 37.331 53.814 37.332 53.814 37.333Z" fill="currentColor"/>
<path d="M73.462 76.376C72.16 71.875 70.521 68.781 68.831 66.603C65.547 62.362 62.093 61.678 60.622 61.396C60.44 61.364 60.29 61.334 60.169 61.306C58.527 60.922 56.644 60.811 54.982 60.715C53.645 60.635 52.369 60.567 51.331 60.358C50.124 63.554 44.186 65.879 36.876 65.879C29.561 65.879 23.631 63.555 22.424 60.358C21.379 60.567 20.103 60.64 18.767 60.717C17.106 60.811 15.223 60.922 13.583 61.306C13.459 61.333 13.306 61.363 13.128 61.396C11.74 61.666 8.58399 62.271 5.46799 65.905C3.59199 68.096 1.72999 71.384 0.280994 76.369C-0.0800057 77.612 -0.0820054 78.922 0.210995 80.142C0.345995 80.698 0.523994 81.247 0.791994 81.753C4.00199 87.832 21.514 90 36.829 90H36.915C52.232 90 69.738 87.832 72.955 81.753C73.268 81.169 73.454 80.529 73.587 79.872C73.81 78.73 73.794 77.528 73.462 76.376Z" fill="currentColor"/>
</svg>
